<svg width="16" height="16" viewBox="0 0 16 16" fill="none" xmlns="http://www.w3.org/2000/svg">
<path d="M11.3334 1.3335H4.66671C2.82576 1.3335 1.33337 2.82588 1.33337 4.66683V11.3335C1.33337 13.1744 2.82576 14.6668 4.66671 14.6668H11.3334C13.1743 14.6668 14.6667 13.1744 14.6667 11.3335V4.66683C14.6667 2.82588 13.1743 1.3335 11.3334 1.3335Z" stroke="white" stroke-width="1.33333" stroke-linecap="round" stroke-linejoin="round"/>
<path d="M10.6667 7.57971C10.7489 8.13454 10.6542 8.70119 10.3958 9.19906C10.1375 9.69692 9.72877 10.1007 9.22776 10.3528C8.72675 10.605 8.15897 10.6928 7.6052 10.6037C7.05143 10.5146 6.53985 10.2531 6.14323 9.85649C5.74662 9.45987 5.48516 8.9483 5.39605 8.39452C5.30694 7.84075 5.39472 7.27298 5.64689 6.77196C5.89907 6.27095 6.3028 5.86221 6.80066 5.60387C7.29853 5.34554 7.86518 5.25077 8.42001 5.33305C8.98596 5.41697 9.50991 5.68069 9.91447 6.08525C10.319 6.48981 10.5828 7.01376 10.6667 7.57971Z" stroke="white" stroke-width="1.33333" stroke-linecap="round" stroke-linejoin="round"/>
<path d="M11.6666 4.3335H11.6733" stroke="white" stroke-width="1.33333" stroke-linecap="round" stroke-linejoin="round"/>
</svg>
